<?xml version="1.0" standalone="no"?>
<!DOCTYPE svg PUBLIC "-//W3C//DTD SVG 20010904//EN"
 "http://www.w3.org/TR/2001/REC-SVG-20010904/DTD/svg10.dtd">
<svg version="1.0" xmlns="http://www.w3.org/2000/svg"
 width="512.000000pt" height="512.000000pt" viewBox="0 0 512.000000 512.000000"
 preserveAspectRatio="xMidYMid meet">
<metadata>
Created by potrace 1.14, written by Peter Selinger 2001-2017
</metadata>
<g transform="translate(0.000000,512.000000) scale(0.100000,-0.100000)"
fill="#000000" stroke="none">
<path d="M1827 3488 c-9 -7 -21 -25 -26 -39 -8 -21 -23 -32 -76 -49 -70 -23
-137 -57 -195 -99 -114 -81 -233 -235 -199 -257 16 -9 10 -34 -8 -34 -10 -1
-31 -7 -48 -16 -32 -15 -33 -15 45 2 22 5 30 -1 58 -45 53 -81 177 -160 252
-161 20 0 74 -13 120 -30 47 -16 92 -30 101 -30 20 0 32 -27 65 -142 30 -107
69 -198 114 -264 27 -38 34 -61 40 -123 5 -42 18 -113 29 -158 12 -45 21 -95
21 -111 0 -28 -3 -30 -46 -35 -35 -4 -54 -13 -83 -41 l-37 -36 -122 0 c-101 0
-124 -3 -129 -15 -3 -9 -3 -18 0 -22 4 -3 462 -5 1019 -5 980 0 1013 0 1013
18 0 18 -13 19 -202 22 -112 1 -203 4 -203 6 0 2 13 18 29 34 22 24 29 44 34
92 4 33 11 70 17 80 15 28 -5 26 -25 -2 -9 -13 -23 -47 -31 -76 -32 -107 -63
-121 -278 -122 -125 0 -138 2 -120 15 19 14 19 14 -2 15 -12 0 -27 -7 -34 -15
-7 -8 -19 -15 -28 -15 -12 0 -10 6 8 25 17 18 20 25 8 25 -8 0 -25 -11 -38
-25 -13 -14 -30 -25 -38 -25 -11 0 -9 7 9 26 46 50 73 57 178 49 136 -11 190
-10 204 4 8 8 2 11 -24 11 -107 0 -202 59 -248 152 -119 241 -11 489 236 543
l58 13 -51 1 c-74 1 -137 -24 -199 -81 -105 -96 -153 -250 -123 -394 l15 -71
-51 5 c-73 7 -231 47 -229 58 1 5 14 38 29 74 20 48 27 86 30 150 2 47 1 76
-2 65 -3 -11 -12 -51 -21 -90 -26 -113 -212 -463 -265 -497 -24 -16 -188 -31
-188 -17 0 4 6 9 13 12 6 2 9 8 4 12 -4 5 -21 -2 -38 -14 -17 -13 -34 -20 -37
-16 -12 12 48 55 77 55 16 0 36 9 47 21 23 26 23 105 1 246 -14 86 -20 99 -78
185 l-62 93 7 -60 c4 -33 16 -80 27 -104 l19 -44 -21 19 c-36 32 -105 126
-132 180 -14 28 -38 88 -52 133 l-27 82 38 57 c20 31 51 75 68 97 25 31 27 37
11 30 -62 -26 -163 -46 -210 -40 -87 10 -188 72 -208 127 -2 7 -8 10 -12 6 -4
-4 0 -17 9 -30 9 -12 16 -26 16 -30 0 -18 -83 -7 -128 17 -79 41 -94 59 -106
127 -6 32 -4 36 12 32 24 -7 54 28 50 57 -2 18 -13 25 -46 34 l-43 10 68 67
c90 88 182 144 333 204 121 48 128 49 232 50 l107 0 -15 -27 c-19 -38 -18 -88
2 -96 10 -3 20 0 25 9 4 8 17 25 27 39 17 20 22 21 36 10 24 -20 20 -39 -14
-71 -30 -28 -30 -40 1 -40 16 0 62 46 84 84 10 17 14 17 72 -7 34 -14 109 -58
168 -97 58 -40 125 -80 148 -88 26 -9 101 -18 192 -22 172 -8 276 -31 394 -87
344 -162 489 -560 323 -888 -13 -27 -58 -84 -99 -126 -74 -77 -86 -110 -22
-63 102 75 186 218 215 368 15 76 16 102 6 180 -19 152 -65 258 -163 375 -65
78 -154 145 -258 193 -119 56 -228 79 -411 87 -173 8 -176 9 -301 97 -74 52
-211 124 -235 124 -7 0 -15 12 -19 28 -3 15 -14 35 -22 45 -19 21 -81 23 -108
3 -14 -10 -27 -11 -54 -4 -20 6 -66 8 -102 6 -46 -4 -71 -1 -84 8 -23 17 -66
18 -88 2z m863 -1418 c43 -11 88 -20 99 -20 14 0 25 -9 31 -25 5 -13 21 -43
35 -65 15 -23 25 -43 23 -44 -2 -1 -20 -9 -41 -19 -26 -12 -43 -28 -50 -47
l-11 -30 -184 0 -184 0 15 23 c9 12 48 75 87 140 52 86 76 117 87 113 8 -3 50
-15 93 -26z m-581 -219 c-15 -13 -39 -20 -63 -21 -38 0 -39 0 -21 20 10 11 28
20 39 20 20 -1 19 -2 -4 -15 -20 -12 -22 -14 -7 -15 11 0 30 9 44 20 33 26 44
17 12 -9z"/>
<path d="M1793 3278 c-11 -13 -25 -32 -31 -43 -9 -18 -5 -21 40 -32 44 -11 54
-11 74 2 12 8 25 23 29 34 3 10 16 22 28 26 22 7 22 8 -3 12 -14 3 -29 9 -34
14 -19 18 -82 10 -103 -13z m67 -8 c0 -5 -7 -10 -15 -10 -8 0 -15 5 -15 10 0
6 7 10 15 10 8 0 15 -4 15 -10z"/>
<path d="M1280 3050 c8 -5 20 -10 25 -10 6 0 3 5 -5 10 -8 5 -19 10 -25 10 -5
0 -3 -5 5 -10z"/>
<path d="M1655 3040 c3 -5 8 -10 11 -10 2 0 4 5 4 10 0 6 -5 10 -11 10 -5 0
-7 -4 -4 -10z"/>
<path d="M1610 3029 c0 -5 5 -7 10 -4 6 3 10 8 10 11 0 2 -4 4 -10 4 -5 0 -10
-5 -10 -11z"/>
<path d="M1655 3000 c-4 -6 19 -10 62 -9 49 1 61 3 43 9 -36 12 -98 12 -105 0z"/>
<path d="M1610 2980 c0 -5 5 -10 10 -10 6 0 10 5 10 10 0 6 -4 10 -10 10 -5 0
-10 -4 -10 -10z"/>
<path d="M1570 2970 c0 -5 5 -10 10 -10 6 0 10 5 10 10 0 6 -4 10 -10 10 -5 0
-10 -4 -10 -10z"/>
<path d="M1298 2952 c-30 -18 -39 -39 -10 -23 29 16 58 40 47 40 -5 0 -22 -7
-37 -17z"/>
<path d="M1684 2955 c11 -8 25 -15 32 -15 7 0 34 -10 61 -22 26 -12 53 -24 58
-27 6 -2 4 3 -3 12 -13 16 -132 67 -155 67 -6 0 -3 -7 7 -15z"/>
<path d="M1620 2940 c-8 -5 -13 -10 -10 -11 3 0 15 -2 28 -3 12 -2 35 -12 50
-22 52 -38 57 -36 13 5 -46 43 -56 47 -81 31z"/>
<path d="M1580 2930 c0 -5 5 -10 10 -10 6 0 10 5 10 10 0 6 -4 10 -10 10 -5 0
-10 -4 -10 -10z"/>
<path d="M1328 2901 c-18 -16 -30 -32 -27 -35 3 -3 21 10 39 29 41 42 33 46
-12 6z"/>
<path d="M1537 2886 c-4 -9 2 -16 16 -20 27 -7 77 -7 60 1 -7 2 -13 11 -13 19
0 8 -5 14 -11 14 -6 0 -9 -7 -5 -15 7 -19 -3 -19 -24 0 -15 14 -18 14 -23 1z"/>
<path d="M1380 2838 c-11 -18 -20 -36 -20 -40 0 -17 11 -6 30 32 25 48 18 53
-10 8z"/>
<path d="M1445 2770 c-4 -17 -5 -34 -2 -36 2 -3 7 10 11 27 8 42 0 50 -9 9z"/>
<path d="M1566 2750 c9 -33 47 -92 70 -110 18 -14 18 -14 2 6 -10 11 -32 45
-48 75 -17 30 -28 43 -24 29z"/>
</g>
</svg>
